<svg xmlns="http://www.w3.org/2000/svg" viewBox="0 0 344 45"><g id="footer"><path d="M17,6.78h2.07V38.22H17Z"/><path d="M36,24.09a9.59,9.59,0,0,0,2.56-3.32c.12-.34.61-.25.61,0a7,7,0,0,1,0,.77H58.67A2.12,2.12,0,0,0,60.18,21l1.2,1.11c.52.46.65.71.28,1.05-.93.83-2.1,1.82-2.87,2.4-.31.22-.67,0-.49-.4a19.31,19.31,0,0,0,1-2.09H39a6.35,6.35,0,0,1-.52,1.66C37.11,27.27,34.4,25.66,36,24.09ZM62,35.27c0,.65-.62,1-1.57,1H37.08c-.61,0-.71-.31-1.23-1.51H47.68v-1.6h-6.9c-.53,0-.62-.28-1.11-1.45h8v-2l2.09.37c.34.06.49.24.49.37v1.26h5c.56,0,.8-.19,1.29-.74.62.62,1,.89,1,1.26,0,.65-.46.93-1.42.93H50.26v1.6h9.3c.56,0,.83-.25,1.36-.86C61.53,34.5,62,34.84,62,35.27ZM36.9,11H47.74V9.47l2,.36c.34.07.49.25.49.41V11h8.26c.49,0,.77-.25,1.26-.8.58.55,1,.92,1,1.35,0,.59-.56.86-1.48.86H50.26v1.39h4.81c.52,0,.74-.16,1.26-.77.62.55,1.11.89,1.11,1.32,0,.62-.62.87-1.57.87H41.27c-.55,0-.65-.25-1.14-1.42h7.61V12.45H38.1C37.57,12.45,37.42,12.18,36.9,11Zm8.68,14.75H40.22c-.49,0-.58-.25-1.11-1.39H55c.53,0,.74-.18,1.18-.71.61.59,1,.87,1,1.24,0,.55-.4.86-1.23.86H48.51a28.28,28.28,0,0,1-3.08,2.28c3.45,0,6.43-.13,8.65-.25-.4-.31-.86-.62-1.42-1-.33-.21-.27-.64.28-.52a11.22,11.22,0,0,1,4.56,1.6c1.42,1,.65,3.3-1,1.91-.55-.49-1-.86-1.41-1.2a95.68,95.68,0,0,1-14.23,1.23c-.71,0-.86-.24-1.76-1.88,1.54.07,3.05.1,4.47.1A17.35,17.35,0,0,0,45.58,25.79ZM53.25,21v-.67h-9a1.9,1.9,0,0,1-2.16.74V15.78l1.82.4c.31.06.46.21.49.37H52a1.47,1.47,0,0,0,1.23-.71l1.88.52c1.17.34.43,1.08.43,1.61v1.81C55.56,20.92,54.54,21.32,53.25,21Zm0-2V17.84H44.38v1.23Z"/><path d="M74.56,29.24a20.13,20.13,0,0,1,.9,4.65c-.07,2-1.11,3-2,3s-1.51-.61-1.14-1.78c.47-1.42,1.39-3.88,1.24-5.18-.13-.95-1.33-1.32-3-1.38a.33.33,0,0,1,0-.65c1.63-.18,2.12-.34,2.58-1.45,1-2.43,2.56-7.76,3.48-11,.16-.52.77-.37.65.12C75.24,24.34,74.22,27.82,74.56,29.24Zm-4-11.8c-.25-.34,0-.61.37-.49a7.65,7.65,0,0,1,3,1.51c1.32,1.32-.25,3.54-1.51,1.88C71.57,19.2,71,18.18,70.53,17.44Zm1.6-6.56c-.22-.34,0-.61.4-.49a7.57,7.57,0,0,1,3.08,1.48c1.35,1.35-.15,3.51-1.32,2C73.3,12.61,72.71,11.78,72.13,10.88Zm7.14,9.64a13.39,13.39,0,0,1-2.58,3.6c-.37.34-.59,0-.5-.24a24.83,24.83,0,0,0,1.51-4.71l1.11.49C79.37,19.91,79.58,19.94,79.27,20.52Zm-.74-3.29a19.8,19.8,0,0,0,3-5.39l1.17.83c.37.28.37.43.19.71a23.5,23.5,0,0,1-3.11,3.69c.89-.12,1.66-.21,2.31-.34-.16-.52-.31-1-.37-1.17s.18-.46.43-.24A5.39,5.39,0,0,1,84,17.5c.55,1.45-1,2.28-1.45.68l-.19-.68c-.3.13-.64.25-.95.37V23c0,1-.89,1.24-1.76,1.11v-5.6c-.46.15-.89.28-1.35.4-.65.18-.71-.16-1.48-1.42C77.43,17.35,78,17.29,78.53,17.23Zm-1.35-4.84c-.15-.25.09-.4.37-.31a7.39,7.39,0,0,1,1.11.53,26.39,26.39,0,0,0,1.26-3.36l1.17.74c.49.31.56.43.28.8a23.13,23.13,0,0,1-2,2.37,2,2,0,0,1,.49.65c.49,1.08-.52,2.31-1.29,1C78.23,14.3,77.46,12.85,77.18,12.39ZM95.32,32.32c0-.1-1.26,4-3.54,4.83a1.78,1.78,0,0,1-1.85-.25,18.15,18.15,0,0,0-2.62-1.41.24.24,0,0,1,.12-.46c3.15.27,3.48.18,4.32-.9a6.73,6.73,0,0,0,1-1.91H80.32a1.72,1.72,0,0,1-.92.84,2.81,2.81,0,0,1-1.91-.16l2.31-6.16,1.57.53c.34.12.52.27.55.46H92V26.1H78.69c-.43,0-.62-.5-1-1.45h13A1.48,1.48,0,0,0,92,23.94l1.88.58c1.29.41.46,1.05.46,1.67v2.15c0,1.33-1.23,1.61-2.34,1.36v-.52H81.43l-.55,1.57H92.24a1.34,1.34,0,0,0,1.05-.59l1.51.65C96.24,31.42,95.38,32.16,95.32,32.32ZM83.92,21.54c.47,1.51-1,2.37-1.54.71-.27-1-.52-2.31-.67-3a.27.27,0,0,1,.46-.28A5.62,5.62,0,0,1,83.92,21.54ZM83,12.21h3.36a1.24,1.24,0,0,1-.43-.47c-.37-.58-.84-1.47-1.08-1.94-.16-.3,0-.55.31-.43a4.73,4.73,0,0,1,2.27,1.3,1.09,1.09,0,0,1-.15,1.54h.83c.5,0,.77-.22,1.14-.71.62.52,1,.83,1,1.14,0,.58-.43.86-1.3.86h-4.8C83.55,13.5,83.43,13.28,83,12.21Zm1.42,3.51c-.43,0-.43-.25-.87-1.23h4.53c.4,0,.68-.25,1.08-.74.58.55.89.89.89,1.14,0,.58-.49.83-1.23.83Zm6.93,1.57a20.49,20.49,0,0,0,3.38-5.55l1,.84c.52.43.52.55.25.89a28.22,28.22,0,0,1-3.36,3.63,22.65,22.65,0,0,0,2.43-.46,5.34,5.34,0,0,0-.31-.74c-.21-.4.13-.55.4-.37a5.33,5.33,0,0,1,1.94,2c.65,1.33-.73,2.47-1.35.87l-.37-1a7.28,7.28,0,0,1-.71.31v5.05c0,1.05-.86,1.32-1.69,1.14V18.3l-1.76.56c-.58.18-.74-.09-1.48-1.17a2.12,2.12,0,0,1-.83.15H84.66c-.4,0-.4-.21-.83-1.2h4.41c.37,0,.64-.21,1-.71.56.56.9.83.87,1.14a1.21,1.21,0,0,1-.13.37C90.48,17.38,90.91,17.32,91.35,17.29ZM88,23.94V23H86c-.09,1-.71,1.3-1.7,1.17V18.49l1.3.28a.64.64,0,0,1,.43.3h1a1.07,1.07,0,0,0,1-.58l1.45.49c.92.31.27.89.27,1.36v2.34C89.74,23.82,89.13,24.19,88,23.94Zm0-2.19V20.24H86v1.51Zm4.28-2.18c.4.18.59.3.4.67a20,20,0,0,1-2.19,3.58c-.27.37-.64.15-.52-.22A34.69,34.69,0,0,0,91.1,19Zm-2-7c-.19-.3.09-.49.28-.4.43.25.77.47,1.07.65A24.79,24.79,0,0,0,93.1,9.22l1.2.77c.4.28.5.4.22.77a22.43,22.43,0,0,1-2.25,2.49,2.64,2.64,0,0,1,.55.65c.62,1-.52,2.31-1.29,1C91.07,14.08,90.51,12.91,90.3,12.54Zm5.45,9.89c-.37-1.26-.62-2.37-.74-2.92-.06-.31.19-.5.4-.31a6.56,6.56,0,0,1,1.94,2.58C97.78,23.08,96.27,24.25,95.75,22.43Z"/><path d="M114.86,27.33c-2.25,1.44-4.53,2.74-7.3,4.28-.83.46-1,.24-2.65-1.57l3.79-1.17V21.08h-2.09c-.47,0-.65-.28-1.24-1.61h3.33V13.19h-2.34c-.46,0-.65-.31-1.2-1.6h7c.55,0,.86-.28,1.39-.86.64.61,1.14,1,1.14,1.48,0,.67-.56,1-1.64,1H111v6.28h.68c.58,0,.89-.24,1.41-.83.65.62,1.11,1,1.11,1.45,0,.65-.52,1-1.66,1H111v7c1.2-.43,2.37-.87,3.57-1.33A.32.32,0,0,1,114.86,27.33Zm18-5.3c0,.74-.59,1.08-1.61,1.08h-1.75V35.43a1.47,1.47,0,0,1-2.4,1.29,10.68,10.68,0,0,0-3-1.57c-.34-.12-.31-.46.12-.46a18.06,18.06,0,0,0,3-.06c.12-.07.12-.22.12-.34V23.11h-1.75v9.11c0,1.05-.9,1.57-2.13,1.36V23.11h-1.75v10.1c0,1.14-.87,1.69-2.13,1.45V23.11h-1.78V35.52c0,1.11-1,1.72-2.19,1.48V23.11H113.2c-.56,0-.74-.31-1.2-1.66h3.63V9.9l1.69.34c.4.09.5.21.5.43v0h8.25a1.63,1.63,0,0,0,1.29-.62l1.67.52c1.29.41.52,1.14.52,1.85v9h.8c.55,0,.83-.22,1.42-.87C132.41,21.2,132.91,21.6,132.91,22Zm-13.31-.58V12.33h-1.78v9.12Zm3.88,0V12.33h-1.75v9.12Zm3.88,0V12.33h-1.75v9.12Z"/><path d="M149.66,28.5A69.09,69.09,0,0,1,143.35,32c-.8.4-1,.46-2.59-1.57,1.36-.34,2.5-.62,3.55-.9V21.26h-1.88c-.5,0-.62-.37-1.2-1.63h3.08V13.07h-2.1c-.52,0-.68-.34-1.17-1.63H148c.49,0,.86-.28,1.42-.87.64.62,1.17,1,1.17,1.51,0,.65-.59,1-1.63,1h-2.31v6.56H147c.55,0,.86-.25,1.41-.86.71.64,1.14,1.07,1.14,1.51,0,.64-.55,1-1.69,1h-1.23v7.58c.89-.25,1.78-.56,2.74-.9A.32.32,0,0,1,149.66,28.5Zm2.59,1.88v1.17c0,1.26-1,1.87-2.28,1.57V20.68l1.79.33c.34.07.46.19.49.34h.43v-5h-3.05c-.49,0-.64-.33-1.2-1.6h4.25V9.4l1.82.4c.31.07.49.22.49.44v4.52h1.48c.49,0,.74-.21,1.26-.8.71.65,1.11.89,1.11,1.36s-.49,1-1.51,1H155v4.87a1.83,1.83,0,0,0,.49-.43l1.76.49c1.26.37.52,1.11.52,1.57v7.27c0,1.14-1,1.63-2.28,1.45v-1.2Zm0-7.61v6h3.23v-6Zm14.69-10.26V35.43c0,1.47-1.11,2.21-2.31,1.26a10,10,0,0,0-3-1.51c-.37-.12-.27-.46.13-.46a13.79,13.79,0,0,0,2.71-.09c.15-.07.15-.22.15-.37v-8h-3c-.31,3.26-1.11,6.07-3.11,8.07a11.57,11.57,0,0,1-4.34,2.83c-.37.15-.77-.22-.28-.58a15.4,15.4,0,0,0,3.45-3.45c1.66-2.22,2-5.49,2.1-8.66.09-3.69.06-8.4,0-14.44l1.84.37c.34.06.53.24.53.46h1.63a1.47,1.47,0,0,0,1.26-.65l1.76.53C167.8,11.13,166.94,11.87,166.94,12.51Zm-2.31,12.11v-5.3h-2.89v2c0,1.14,0,2.25-.07,3.3Zm-2.89-12.2v5.3h2.89v-5.3Z"/><path d="M182.72,33.86v-1.7h-2.4v2.28A1.75,1.75,0,0,1,178,35.92V24.77a11.69,11.69,0,0,1-2.25,3.08c-.46.4-.74,0-.49-.4,1.69-3,3.51-9.15,4.16-13.37h-3.14c-.46,0-.68-.21-1.17-1.57h9.36c.49,0,.8-.33,1.32-.86.56.53,1.11,1,1.11,1.39,0,.68-.58,1-1.54,1h-3.66a46.69,46.69,0,0,1-1.7,6.07h1.42a1.5,1.5,0,0,0,1.23-.64,0,0,0,0,1,0,0v0l2,.61c1,.31.31,1.14.31,1.73V32.47C185,33.52,183.8,34.07,182.72,33.86Zm0-3.24V21.69h-2.4v8.93Zm5.58.8A11.12,11.12,0,0,1,187,36.23c-1.44,2.18-4.06.58-2.18-1.17a13.56,13.56,0,0,0,2.83-3.79C187.8,31,188.33,30.93,188.3,31.42Zm1.94-2.52c-.1,1.26-1.2,1.66-2.37,1.48V17a18.11,18.11,0,0,1-2.28,2.5c-.4.33-.71-.07-.47-.44a42,42,0,0,0,4.56-9.82L191,10c.74.4.89.55.67.95-.52,1-1.1,2-1.75,3.08h9.73c.49,0,.77-.34,1.32-.92.68.65,1.18,1,1.18,1.42,0,.77-.59,1.07-1.67,1.07h-4.16v2.9h2.47c.49,0,.8-.34,1.32-1,.74.65,1.23,1,1.23,1.45,0,.71-.58,1.05-1.69,1.05h-3.33v2.89h2.78c.49,0,.77-.24,1.35-.89.65.65,1.14,1,1.14,1.42,0,.67-.58,1-1.69,1h-3.58v2.9h4c.46,0,.8-.28,1.35-.93.68.65,1.17,1,1.17,1.45,0,.74-.58,1-1.66,1ZM194,15.56h-3.72v2.9H194ZM194,20h-3.72v2.89H194Zm0,4.43h-3.72v2.9H194Zm-1,10.41c.43,2.31-2.1,3-2.25.89-.12-1.57-.12-3.14-.25-4.34a.32.32,0,0,1,.59-.21A9.1,9.1,0,0,1,193,34.84Zm.15-25.13c-.18-.34.19-.52.46-.4a7.05,7.05,0,0,1,3.11,2.19c1.08,1.72-.83,3.32-1.84,1.51C194.24,11.9,193.62,10.64,193.13,9.71Zm4.74,25c.62,2.25-1.78,3-2.21,1-.34-1.6-.62-2.92-1-4.22-.12-.4.19-.61.56-.33A7.79,7.79,0,0,1,197.87,34.72Zm3,1.26c-.8-1.94-1.41-3.39-2-4.59-.12-.24.09-.61.49-.37a9.2,9.2,0,0,1,3.39,3.42C203.63,36.5,201.63,37.86,200.86,36Z"/><path d="M223.5,19.17l-2.12,1.57c-.37.27-.71,0-.53-.34s.4-.86.59-1.3h-8.5a3,3,0,0,1-.19,1.08c-.83,2.87-3.66,1.63-2-.12a7.65,7.65,0,0,0,1.63-2.74c.16-.37.59-.28.59,0a1.54,1.54,0,0,0,0,.37h.24V10l1.48.28c.34.06.47.18.53.37H218a1.55,1.55,0,0,0,1.26-.59l1.63.49c1.17.34.37,1,.37,1.57v5.61a1.67,1.67,0,0,0,.93-.59l1.14,1a1.38,1.38,0,0,1,.36.4V11.25l1.45.34c.46.12.59.22.62.43h1.54V9.34l1.38.28c.56.12.62.25.62.49V12h1.57V9.43l1.39.25c.52.09.61.28.61.46V12h.31a1.48,1.48,0,0,0,1.26-.61l1.6.49c1.17.37.47.77.47,1.54v5.73c0,1.29-.87,1.66-2.07,1.47v-.77h-8.71c-.22.77-1,1.08-2,1V19C223.62,19.07,223.56,19.1,223.5,19.17ZM221,22.8V35.58c0,1.14-1.14,2.22-2.31,1.11A9.08,9.08,0,0,0,216,35.12c-.34-.09-.34-.46.06-.46a13.87,13.87,0,0,0,2.62-.06c.06,0,.09-.1.09-.25V30.44H215.4a14.73,14.73,0,0,1-.55,3,7.6,7.6,0,0,1-2.9,3.69c-.37.25-.71-.06-.49-.37a12.81,12.81,0,0,0,1.75-6.13c.19-2,.1-6.68.07-10.31l1.72.34c.37.09.56.24.56.46h1.9a1.52,1.52,0,0,0,1.33-.68l1.85.62C221.87,21.48,221,22.25,221,22.8Zm-5.82-5.08h1.07V13.1l1.36.31c.46.09.52.34.52.43h1.05V12.05h-4Zm3.57,11.21V26.62h-3.23v.77c0,.52,0,1.05,0,1.54Zm-3.23-6.28v2.46h3.23V22.65Zm2.61-4.93h1.05V15.16h-1.05ZM238,35.18c0,.74-.65,1-1.6,1H222.85c-.46,0-.64-.34-1.23-1.6h5.73a1.71,1.71,0,0,1-.49-.77c-.25-.77-.68-2.19-.8-2.71-.1-.37.24-.56.61-.34a4.81,4.81,0,0,1,2.16,2.12,1.45,1.45,0,0,1-.34,1.7h2.4A36.51,36.51,0,0,0,232,30.35l1.6.77c.62.3.59.58.31,1-.4.56-1.23,1.76-1.88,2.53h3.42c.52,0,.89-.31,1.42-.93C237.45,34.32,238,34.72,238,35.18Zm-1.3-14.35c.56.52,1.08.92,1.08,1.29,0,.68-.55,1-1.48,1H223.25c-.49,0-.64-.34-1.1-1.54h13.33C236.07,21.6,236.31,21.35,236.74,20.83Zm-3.48,10v-.93h-6.83c-.22.86-1.17,1.08-2.22,1V24l1.69.34c.43.09.59.25.59.43H232a1.43,1.43,0,0,0,1.26-.64l1.82.52c1.2.34.46.92.46,1.72v2.87C235.54,30.59,234.5,31,233.26,30.78Zm-6-17.4h-1.54v1.91h1.54Zm0,3.23h-1.54v1.91h1.54Zm6,11.73v-2h-6.77v2Zm-4-15v1.91h1.57V13.38Zm0,5.14h1.57V16.61h-1.57Zm3.57-5.14v1.91h1.57V13.38Zm1.57,5.14V16.61h-1.57v1.91Z"/><path d="M251.56,21.11V35.67c0,1.27-1.23,1.73-2.28,1.42V21.72a23,23,0,0,1-3.42,7.82c-.33.47-.7.07-.55-.3a53.83,53.83,0,0,0,3.17-12h-2.06c-.59,0-.68-.25-1.14-1.57h4V9.25l1.76.4c.34.06.52.22.52.4v5.61h1.14c.46,0,.8-.31,1.39-1,.71.71,1.17,1.08,1.17,1.51,0,.74-.62,1.05-1.73,1.05h-2v2.43c1.51,1.23,2.34,1.79,3,2.92.86,1.48-.83,3.36-1.73,1.42C252.3,22.89,251.9,21.91,251.56,21.11ZM260,34.19c-.4-.61-1.08-1.69-1.66-2.55a21.9,21.9,0,0,1-5,5.33c-.4.27-.77-.1-.43-.5A33,33,0,0,0,258,27.54l1.35.9c.71.46.71.58.43,1L259,30.71a11,11,0,0,1,2.65,1.76C263.08,34.07,261.36,36.26,260,34.19Zm12.94-16c-1.94,1.29-2,1.33-3.21.59a23.42,23.42,0,0,1-7-6.81,31.26,31.26,0,0,1-4.56,5.17h5.89c.49,0,.8-.24,1.35-.86.74.68,1.14,1,1.14,1.36,0,.64-.52,1-1.51,1H259.2c-.43,0-.52-.3-1.05-1.47a21.19,21.19,0,0,1-4.4,3.14.34.34,0,0,1-.37-.56,31.7,31.7,0,0,0,8.19-10.84l1.45,1c.68.46.71.52.37,1.11l0,0a23.25,23.25,0,0,0,9.45,6.65C273.18,17.84,273.24,18,272.94,18.18ZM260,28.13V27.08h-2.65c0,1.36-1.54,1.54-2.28,1.36V19.78l1.73.34c.37.09.49.19.55.31H259a1.23,1.23,0,0,0,1-.59l1.82.56c1.14.34.4,1,.4,1.63v4.68C262.25,27.85,261.2,28.34,260,28.13Zm0-2.56V21.91h-2.65v3.66Zm11.4,8.69c1.41,1.84-.28,3.78-1.73,1.72-1-1.42-2.19-3-3.11-4.22a25.66,25.66,0,0,1-4.5,5.27c-.37.28-.7,0-.43-.43a46.63,46.63,0,0,0,4.5-9l1.42.9c.55.37.67.49.43,1s-.62,1.08-1,1.66A15.35,15.35,0,0,1,271.43,34.26Zm-3.05-6.13v-1H265.7a1.7,1.7,0,0,1-2.19,1.08V19.78l1.66.34c.4.09.53.19.56.31h1.6a1.29,1.29,0,0,0,1.05-.65l1.88.62c1.14.37.4.92.4,1.57v4.74C270.66,27.94,269.58,28.34,268.38,28.13Zm0-2.53V21.91h-2.65V25.6Z"/><path d="M281.54,16.43c-.61,0-.61-.34-1.14-1.64h9.4c.61,0,.8-.24,1.44-.95.74.71,1.2,1.11,1.2,1.51,0,.83-.64,1.08-1.66,1.08Zm9.77,2.89c0,.71-.65,1.05-1.64,1.05h-7c-.49,0-.61-.34-1.14-1.57h7.24c.55,0,.8-.25,1.39-.9C290.87,18.61,291.31,19,291.31,19.32Zm0,3.85c0,.71-.61,1-1.6,1h-7c-.49,0-.55-.34-1.08-1.58h7.15c.55,0,.83-.27,1.35-.89C290.87,22.37,291.27,22.74,291.27,23.17Zm-.3,5.39V34.5c0,1.42-1.08,1.82-2.44,1.67V34.23h-4v.61c0,1.66-1.6,1.82-2.43,1.63V26.06l1.88.37c.33.07.52.22.55.4h2.68a1.57,1.57,0,0,0,1.32-.73l1.91.61C291.71,27.11,291,27.91,291,28.56Zm-7.09-19c-.18-.34.06-.65.43-.46a8.29,8.29,0,0,1,3.21,2.49c1.14,2.06-.77,4-2,1.48C285.08,12.21,284.28,10.39,283.88,9.59Zm4.65,23V28.41h-4v4.21ZM308.15,20c0,.71-.65,1-1.72,1h-5.3V35.4c0,1.5-1.29,1.84-2.53,1.63V21h-5.29c-.56,0-.74-.43-1.36-1.72h6.65V9.19l2,.43c.41.09.56.21.56.37v9.3h4.4c.56,0,.87-.31,1.39-.86C307.53,19,308.15,19.51,308.15,20Z"/><path d="M343,35.24c0,.77-.62,1-1.69,1H316.86c-.49,0-.61-.31-1.17-1.6H340.3c.58,0,.89-.31,1.48-1C342.52,34.41,343,34.75,343,35.24ZM328.2,14.85V13.41H321c-.43,0-.59-.46-1-1.42h8.17V9.28l1.9.34c.41.06.56.28.56.49V12h3.11a1.62,1.62,0,0,0,1.39-.74l1.91.65c1.26.43.49,1,.49,1.66v1.29H340c.53,0,.77-.27,1.33-.89.64.65,1.07,1,1.07,1.45,0,.58-.55.89-1.51.89h-3.35v2c0,1.33-1.26,1.64-2.4,1.45v-.68h-4.5v1.42h6c.55,0,.83-.25,1.32-.83.62.62,1.05.95,1.05,1.32,0,.65-.53.93-1.48.93h-6.93v1.41h9.18c.55,0,.8-.27,1.35-.86.65.62,1.11,1,1.11,1.36,0,.67-.58,1-1.57,1H317.45c-.5,0-.62-.31-1.14-1.48H328.2V21.91h-8.32c-.46,0-.58-.28-1.08-1.42h9.4V19.07h-7c-.49,0-.64-.4-1-1.41h8V16.3H316.92c-.46,0-.58-.31-1-1.45Zm7.23,19.28v-1H323.36c-.21.8-1.32,1.14-2.34,1V25.48l1.91.37c.37.09.49.21.49.37h10.72a1.57,1.57,0,0,0,1.29-.68l2,.59c1.24.37.44.95.44,1.63v5.05C337.84,33.83,336.79,34.32,335.43,34.13Zm-7.23-5.2V27.67h-4.78v1.26Zm-4.78,1.45v1.29h4.78V30.38Zm7.21-2.71v1.26h4.8V27.67Zm4.8,4V30.38h-4.8v1.29Zm-4.77-16.82h4.5V13.41h-4.5Zm4.5,1.45h-4.5v1.36h4.5Z"/></g></svg>