<?xml version="1.0" encoding="UTF-8"?><svg xmlns="http://www.w3.org/2000/svg" viewBox="0 0 343.83 45"><defs><style>.aq{fill:#fff;}</style></defs><g id="a"/><g id="b"/><g id="c"/><g id="d"/><g id="e"/><g id="f"/><g id="g"/><g id="h"/><g id="i"/><g id="j"/><g id="k"/><g id="l"/><g id="m"/><g id="n"/><g id="o"/><g id="p"/><g id="q"/><g id="r"/><g id="s"/><g id="t"/><g id="u"/><g id="v"/><g id="w"/><g id="x"/><g id="y"/><g id="a`"/><g id="aa"/><g id="ab"/><g id="ac"/><g id="ad"/><g id="ae"/><g id="af"/><g id="ag"/><g id="ah"/><g id="ai"/><g id="aj"/><g id="ak"/><g id="al"><g><path class="aq" d="M16.82,6.78h2.07v31.44h-2.07V6.78Z"/><g><path class="aq" d="M35.8,24.09c.74-.74,1.88-1.66,2.56-3.33,.12-.34,.62-.25,.62,.03,0,.25,0,.49-.03,.77h19.56c.49,0,.99-.12,1.51-.59l1.2,1.11c.52,.46,.65,.71,.28,1.05-.92,.83-2.09,1.82-2.86,2.4-.31,.22-.68-.03-.49-.4,.28-.55,.77-1.54,.95-2.09h-20.29c-.12,.62-.28,1.2-.52,1.66-1.32,2.56-4.03,.95-2.46-.62Zm26.05,11.18c0,.65-.62,.95-1.57,.95h-23.37c-.62,0-.71-.31-1.23-1.51h11.83v-1.6h-6.9c-.52,0-.62-.28-1.11-1.45h8.01v-2l2.09,.37c.34,.06,.49,.25,.49,.37v1.26h4.99c.55,0,.8-.18,1.29-.74,.62,.62,1.02,.89,1.02,1.26,0,.65-.46,.92-1.42,.92h-5.88v1.6h9.3c.55,0,.83-.25,1.35-.86,.62,.65,1.11,.99,1.11,1.42ZM36.73,11.04h10.84v-1.57l2.03,.37c.34,.06,.49,.25,.49,.4v.8h8.25c.49,0,.77-.25,1.26-.8,.59,.55,1.05,.92,1.05,1.36,0,.59-.55,.86-1.48,.86h-9.08v1.39h4.8c.52,0,.74-.15,1.26-.77,.62,.55,1.11,.89,1.11,1.32,0,.62-.62,.86-1.57,.86h-14.6c-.55,0-.65-.25-1.14-1.42h7.61v-1.39h-9.64c-.52,0-.68-.28-1.2-1.42Zm8.68,14.75h-5.36c-.49,0-.59-.25-1.11-1.39h15.89c.52,0,.74-.18,1.17-.71,.62,.59,.95,.86,.95,1.23,0,.55-.4,.86-1.23,.86h-7.39c-.89,.77-1.97,1.57-3.08,2.28,3.45,0,6.44-.12,8.65-.25-.4-.31-.86-.62-1.42-.99-.34-.22-.28-.65,.28-.52,1.97,.4,3.3,.71,4.56,1.6,1.42,1.02,.65,3.3-1.02,1.91-.55-.49-1.02-.86-1.42-1.2-4.68,.95-11.06,1.11-14.23,1.23-.71,.03-.86-.25-1.76-1.88,1.54,.06,3.05,.09,4.47,.09,.77-.74,1.42-1.45,2.03-2.28Zm7.67-4.74v-.68h-9.02c-.34,.71-1.29,.92-2.16,.74v-5.33l1.82,.4c.31,.06,.46,.22,.49,.37h7.64c.52,0,.83-.22,1.23-.71l1.88,.52c1.17,.34,.43,1.08,.43,1.6v1.82c0,1.14-1.02,1.54-2.31,1.26Zm0-1.97v-1.23h-8.87v1.23h8.87Z"/><path class="aq" d="M74.39,29.24c.49,2.03,.92,3.39,.89,4.65-.06,2.03-1.11,2.96-2,2.99-.77,.03-1.51-.62-1.14-1.79,.46-1.42,1.39-3.88,1.23-5.17-.12-.95-1.32-1.32-2.99-1.39-.4,0-.43-.62-.03-.65,1.63-.18,2.12-.34,2.59-1.45,1.02-2.43,2.56-7.76,3.48-10.99,.15-.52,.77-.37,.65,.12-2,8.78-3.02,12.26-2.68,13.67Zm-4.03-11.8c-.25-.34-.03-.62,.37-.49,1.23,.4,2.34,.8,3.05,1.51,1.32,1.32-.25,3.54-1.51,1.88-.86-1.14-1.42-2.16-1.91-2.89Zm1.6-6.56c-.22-.34,0-.62,.4-.49,1.2,.37,2.37,.77,3.08,1.48,1.36,1.36-.15,3.51-1.32,2-.99-1.26-1.57-2.09-2.16-2.99Zm7.14,9.64c-.46,.83-1.35,2.53-2.59,3.6-.37,.34-.59-.03-.49-.25,.62-1.42,1.11-2.89,1.51-4.71l1.11,.49c.55,.25,.77,.28,.46,.86Zm-.74-3.3c1.02-1.26,1.63-2.22,3.02-5.39l1.17,.83c.37,.28,.37,.43,.18,.71-.8,1.08-1.66,2.37-3.11,3.7,.89-.12,1.66-.22,2.31-.34-.15-.52-.31-.95-.37-1.17-.09-.31,.18-.46,.43-.25,.58,.52,1.35,1.02,1.82,2.19,.55,1.45-1.02,2.28-1.45,.68l-.18-.68c-.31,.12-.65,.25-.95,.37v5.08c0,1.02-.89,1.23-1.76,1.11v-5.61c-.46,.15-.89,.28-1.35,.4-.65,.18-.71-.15-1.48-1.42,.62-.09,1.2-.15,1.72-.22Zm-1.35-4.84c-.15-.25,.09-.4,.37-.31,.34,.12,.74,.31,1.11,.52,.49-1.08,.77-1.82,1.26-3.36l1.17,.74c.49,.31,.55,.43,.28,.8-.49,.65-1.02,1.36-2,2.37,.22,.18,.4,.43,.49,.65,.49,1.08-.52,2.31-1.29,1.05-.34-.55-1.11-2-1.39-2.46Zm18.14,19.93c0-.09-1.26,3.97-3.54,4.84-.71,.28-1.29,.15-1.85-.25-.43-.31-1.45-.89-2.62-1.42-.28-.12-.22-.49,.12-.46,3.14,.28,3.48,.18,4.31-.89,.34-.46,.65-1.02,.95-1.91h-12.38c-.25,.43-.55,.71-.92,.83-.68,.25-1.45,.03-1.91-.15l2.31-6.16,1.57,.52c.34,.12,.52,.28,.55,.46h10.07v-1.63h-13.3c-.43,0-.62-.49-.99-1.45h13.03c.52,0,.89-.22,1.26-.71l1.88,.59c1.29,.4,.46,1.05,.46,1.66v2.16c0,1.32-1.23,1.6-2.34,1.36v-.52h-10.56l-.55,1.57h11.36c.34,0,.65-.12,1.05-.59l1.51,.65c1.45,.62,.59,1.36,.52,1.51Zm-11.39-10.78c.46,1.51-1.05,2.37-1.54,.71-.28-.95-.52-2.31-.68-2.96-.09-.34,.28-.46,.46-.28,.83,.83,1.39,1.36,1.76,2.53Zm-.92-9.33h3.36c-.15-.09-.31-.25-.43-.46-.37-.59-.83-1.48-1.08-1.94-.15-.31-.03-.55,.31-.43,1.23,.43,1.88,.8,2.28,1.29,.43,.52,.25,1.23-.15,1.54h.83c.49,0,.77-.22,1.14-.71,.62,.52,.95,.83,.95,1.14,0,.59-.43,.86-1.29,.86h-4.8c-.55,0-.68-.22-1.11-1.29Zm1.42,3.51c-.43,0-.43-.25-.86-1.23h4.53c.4,0,.68-.25,1.08-.74,.59,.55,.89,.89,.89,1.14,0,.59-.49,.83-1.23,.83h-4.4Zm6.93,1.57c.99-1.11,2.03-2.56,3.39-5.54l1.02,.83c.52,.43,.52,.55,.25,.89-.77,.95-1.94,2.4-3.36,3.63,.95-.15,1.76-.28,2.43-.46-.12-.31-.22-.59-.31-.74-.22-.4,.12-.55,.4-.37,.83,.62,1.45,1.05,1.94,2.03,.65,1.32-.74,2.46-1.35,.86l-.37-1.02c-.25,.12-.46,.22-.71,.31v5.05c0,1.05-.86,1.32-1.69,1.14v-5.6c-.58,.18-1.14,.37-1.76,.55-.59,.18-.74-.09-1.48-1.17-.22,.09-.49,.15-.83,.15h-4.25c-.4,0-.4-.22-.83-1.2h4.4c.37,0,.65-.22,1.05-.71,.55,.55,.89,.83,.86,1.14-.03,.15-.06,.28-.12,.37,.46-.06,.89-.12,1.32-.15Zm-3.33,6.65v-.99h-2.03c-.09,1.02-.71,1.29-1.69,1.17v-5.64l1.29,.28c.28,.06,.4,.25,.43,.31h.99c.46,0,.74-.15,1.02-.59l1.45,.49c.92,.31,.28,.89,.28,1.36v2.34c0,1.14-.62,1.51-1.72,1.26Zm0-2.19v-1.51h-2v1.51h2Zm4.28-2.19c.4,.18,.58,.31,.4,.68-.43,.86-1.14,2.25-2.19,3.57-.28,.37-.65,.15-.52-.22,.46-1.42,.77-2.74,1.11-4.56l1.2,.52Zm-2-7.02c-.18-.31,.09-.49,.28-.4,.43,.25,.77,.46,1.08,.65,.62-1.23,.86-1.91,1.45-3.57l1.2,.77c.4,.28,.49,.4,.22,.77-.59,.74-1.29,1.6-2.25,2.49,.22,.18,.4,.4,.55,.65,.62,.99-.52,2.31-1.29,.99-.46-.8-1.02-1.97-1.23-2.34Zm5.45,9.89c-.37-1.26-.62-2.37-.74-2.93-.06-.31,.18-.49,.4-.31,.65,.55,1.57,1.51,1.94,2.59,.43,1.29-1.08,2.46-1.6,.65Z"/><path class="aq" d="M114.69,27.33c-2.25,1.45-4.53,2.74-7.3,4.28-.83,.46-1.02,.25-2.65-1.57l3.79-1.17v-7.79h-2.09c-.46,0-.65-.28-1.23-1.6h3.33v-6.28h-2.34c-.46,0-.65-.31-1.2-1.6h7.02c.55,0,.86-.28,1.39-.86,.65,.62,1.14,1.05,1.14,1.48,0,.68-.55,.99-1.63,.99h-2.06v6.28h.68c.59,0,.89-.25,1.42-.83,.65,.62,1.11,1.02,1.11,1.45,0,.65-.52,.99-1.66,.99h-1.54v7.02c1.2-.43,2.37-.86,3.57-1.32,.31-.12,.59,.34,.28,.55Zm18.05-5.3c0,.74-.59,1.08-1.6,1.08h-1.76v12.32c0,1.29-1.26,2.19-2.4,1.29-.99-.77-2.06-1.23-3.02-1.57-.34-.12-.31-.46,.12-.46,.89,0,2.68,.09,2.99-.06,.12-.06,.12-.22,.12-.34v-11.18h-1.76v9.12c0,1.05-.89,1.57-2.13,1.36v-10.47h-1.76v10.1c0,1.14-.86,1.69-2.12,1.45v-11.55h-1.79v12.41c0,1.11-.95,1.72-2.19,1.48v-13.89h-2.43c-.55,0-.74-.31-1.2-1.66h3.63V9.9l1.69,.34c.4,.09,.49,.22,.49,.43v.03h8.25c.52,0,.89-.18,1.29-.62l1.66,.52c1.29,.4,.52,1.14,.52,1.85v8.99h.8c.55,0,.83-.22,1.42-.86,.65,.62,1.14,1.02,1.14,1.45Zm-13.3-.59V12.33h-1.79v9.12h1.79Zm3.88,0V12.33h-1.76v9.12h1.76Zm3.88,0V12.33h-1.76v9.12h1.76Z"/><path class="aq" d="M149.49,28.5c-2.16,1.39-3.57,2.06-6.31,3.48-.8,.4-1.02,.46-2.59-1.57,1.35-.34,2.49-.62,3.54-.89v-8.25h-1.88c-.49,0-.62-.37-1.2-1.63h3.08v-6.56h-2.09c-.52,0-.68-.34-1.17-1.63h6.93c.49,0,.86-.28,1.42-.86,.65,.62,1.17,1.05,1.17,1.51,0,.65-.59,.99-1.63,.99h-2.31v6.56h.37c.55,0,.86-.25,1.42-.86,.71,.65,1.14,1.08,1.14,1.51,0,.65-.55,.99-1.69,.99h-1.23v7.58c.89-.25,1.79-.55,2.74-.89,.4-.15,.65,.34,.31,.55Zm2.59,1.88v1.17c0,1.26-1.02,1.88-2.28,1.57v-12.44l1.79,.34c.34,.06,.46,.18,.49,.34h.43v-4.99h-3.05c-.49,0-.65-.34-1.2-1.6h4.25v-5.36l1.82,.4c.31,.06,.49,.22,.49,.43v4.53h1.48c.49,0,.74-.22,1.26-.8,.71,.65,1.11,.89,1.11,1.36,0,.62-.49,1.05-1.51,1.05h-2.34v4.87c.15-.09,.31-.22,.49-.43l1.76,.49c1.26,.37,.52,1.11,.52,1.57v7.27c0,1.14-1.05,1.63-2.28,1.45v-1.2h-3.23Zm0-7.61v6.04h3.23v-6.04h-3.23Zm14.69-10.26v22.91c0,1.48-1.11,2.22-2.31,1.26-.83-.65-1.94-1.17-2.99-1.51-.37-.12-.28-.46,.12-.46,.99,0,2.4,.06,2.71-.09,.15-.06,.15-.22,.15-.37v-8.04h-3.05c-.31,3.26-1.11,6.07-3.11,8.07-1.35,1.36-2.31,1.97-4.34,2.83-.37,.15-.77-.22-.28-.59,1.76-1.39,2.37-2,3.45-3.45,1.66-2.22,2-5.48,2.09-8.65,.09-3.7,.06-8.41-.03-14.44l1.85,.37c.34,.06,.52,.25,.52,.46h1.63c.59,0,.83-.18,1.26-.65l1.76,.52c1.42,.43,.55,1.17,.55,1.82Zm-2.31,12.1v-5.3h-2.9v2c0,1.14,0,2.25-.06,3.3h2.96Zm-2.9-12.2v5.3h2.9v-5.3h-2.9Z"/><path class="aq" d="M182.55,33.86v-1.69h-2.4v2.28c0,1.14-1.26,1.72-2.28,1.48v-11.15c-.71,1.29-1.45,2.37-2.25,3.08-.46,.4-.74,0-.49-.4,1.69-2.96,3.51-9.15,4.16-13.37h-3.14c-.46,0-.68-.22-1.17-1.57h9.36c.49,0,.8-.34,1.32-.86,.55,.52,1.11,.99,1.11,1.39,0,.68-.59,1.05-1.54,1.05h-3.66c-.37,1.82-.95,3.97-1.69,6.07h1.42c.52,0,.86-.22,1.23-.65,0,0,.03,0,.03,.03v-.03l1.97,.62c.99,.31,.31,1.14,.31,1.72v10.62c0,1.05-1.2,1.6-2.28,1.39Zm0-3.23v-8.93h-2.4v8.93h2.4Zm5.57,.8c-.12,1.88-.58,3.76-1.26,4.8-1.45,2.19-4.07,.59-2.19-1.17,1.26-1.2,2.03-2.28,2.83-3.79,.12-.25,.65-.34,.62,.15Zm1.94-2.53c-.09,1.26-1.2,1.66-2.37,1.48v-13.37c-.74,.95-1.51,1.82-2.28,2.49-.4,.34-.71-.06-.46-.43,1.51-2.22,3.88-7.21,4.56-9.82l1.32,.71c.74,.4,.89,.55,.68,.95-.52,.99-1.11,2.03-1.76,3.08h9.73c.49,0,.77-.34,1.32-.92,.68,.65,1.17,1.02,1.17,1.42,0,.77-.59,1.08-1.66,1.08h-4.16v2.89h2.46c.49,0,.8-.34,1.32-.95,.74,.65,1.23,1.02,1.23,1.45,0,.71-.58,1.05-1.69,1.05h-3.33v2.89h2.77c.49,0,.77-.25,1.36-.89,.65,.65,1.14,.99,1.14,1.42,0,.68-.59,1.02-1.69,1.02h-3.57v2.89h3.97c.46,0,.8-.28,1.36-.92,.68,.65,1.17,1.02,1.17,1.45,0,.74-.59,1.05-1.66,1.05h-10.93Zm3.73-13.33h-3.73v2.89h3.73v-2.89Zm0,4.43h-3.73v2.89h3.73v-2.89Zm0,4.43h-3.73v2.89h3.73v-2.89Zm-.99,10.41c.43,2.31-2.09,3.02-2.25,.89-.12-1.57-.12-3.14-.25-4.34-.03-.31,.34-.52,.59-.22,.77,.95,1.66,2.34,1.91,3.66Zm.15-25.13c-.18-.34,.18-.52,.46-.4,1.26,.55,2.56,1.29,3.11,2.19,1.08,1.72-.83,3.33-1.85,1.51-.62-1.11-1.23-2.37-1.72-3.3Zm4.74,25.01c.62,2.25-1.79,3.02-2.22,.95-.34-1.6-.62-2.93-1.02-4.22-.12-.4,.18-.62,.55-.34,1.08,.83,2.31,2.25,2.68,3.6Zm2.99,1.26c-.8-1.94-1.42-3.39-2-4.59-.12-.25,.09-.62,.49-.37,1.69,1.11,2.93,2.37,3.39,3.42,.89,2.06-1.11,3.42-1.88,1.54Z"/><path class="aq" d="M223.33,19.17c-.65,.49-1.32,.99-2.13,1.57-.37,.28-.71,.03-.52-.34,.22-.43,.4-.86,.59-1.29h-8.5c0,.37-.06,.74-.18,1.08-.83,2.86-3.66,1.63-2.03-.12,.71-.77,1.11-1.42,1.63-2.74,.15-.37,.58-.28,.58,.03,0,.12,0,.25,.03,.37h.25v-7.73l1.48,.28c.34,.06,.46,.18,.52,.37h2.74c.52,0,.86-.15,1.26-.59l1.63,.49c1.17,.34,.37,1.02,.37,1.57v5.6c.34-.06,.55-.22,.92-.59l1.14,.95c.18,.15,.31,.28,.37,.4v-7.24l1.45,.34c.46,.12,.58,.22,.62,.43h1.54v-2.68l1.39,.28c.55,.12,.62,.25,.62,.49v1.91h1.57v-2.59l1.39,.25c.52,.09,.62,.28,.62,.46v1.88h.31c.59,0,.86-.18,1.26-.62l1.6,.49c1.17,.37,.46,.77,.46,1.54v5.73c0,1.29-.86,1.66-2.06,1.48v-.77h-8.72c-.22,.77-.95,1.08-2.03,.95v-1.82c-.03,.06-.09,.09-.15,.15Zm-2.46,3.63v12.78c0,1.14-1.14,2.22-2.31,1.11-.52-.49-1.94-1.36-2.71-1.57-.34-.09-.34-.46,.06-.46,.83,0,2.31,.09,2.62-.06,.06-.03,.09-.09,.09-.25v-3.91h-3.39c-.12,1.32-.34,2.37-.55,3.02-.55,1.63-1.76,2.93-2.89,3.7-.37,.25-.71-.06-.49-.37,.95-1.51,1.51-3.26,1.76-6.13,.18-1.97,.09-6.68,.06-10.32l1.72,.34c.37,.09,.55,.25,.55,.46h1.91c.62,0,.95-.22,1.32-.68l1.85,.62c1.23,.4,.4,1.17,.4,1.72Zm-5.82-5.08h1.08v-4.62l1.35,.31c.46,.09,.52,.34,.52,.43h1.05v-1.79h-4v5.67Zm3.57,11.21v-2.31h-3.23v.77c0,.52,0,1.05-.03,1.54h3.26Zm-3.23-6.28v2.46h3.23v-2.46h-3.23Zm2.62-4.93h1.05v-2.56h-1.05v2.56Zm19.86,17.46c0,.74-.65,1.05-1.6,1.05h-13.58c-.46,0-.65-.34-1.23-1.6h5.73c-.18-.15-.37-.4-.49-.77-.25-.77-.68-2.19-.8-2.71-.09-.37,.25-.55,.62-.34,.77,.43,1.82,1.2,2.16,2.13,.28,.77,.06,1.39-.34,1.69h2.4c.46-1.29,.89-3.11,1.14-4.28l1.6,.77c.62,.31,.59,.59,.31,.99-.4,.55-1.23,1.76-1.88,2.53h3.42c.52,0,.89-.31,1.42-.92,.55,.62,1.14,1.02,1.14,1.48Zm-1.29-14.35c.55,.52,1.08,.92,1.08,1.29,0,.68-.55,1.02-1.48,1.02h-13.09c-.49,0-.65-.34-1.11-1.54h13.33c.59,0,.83-.25,1.26-.77Zm-3.48,9.95v-.92h-6.84c-.22,.86-1.17,1.08-2.22,1.02v-6.84l1.69,.34c.43,.09,.59,.25,.59,.43h5.51c.59,0,.86-.18,1.26-.65l1.82,.52c1.2,.34,.46,.92,.46,1.72v2.86c0,1.32-1.05,1.72-2.28,1.51Zm-6.01-17.4h-1.54v1.91h1.54v-1.91Zm0,3.23h-1.54v1.91h1.54v-1.91Zm6.01,11.73v-2.03h-6.78v2.03h6.78Zm-4-14.97v1.91h1.57v-1.91h-1.57Zm0,5.14h1.57v-1.91h-1.57v1.91Zm3.57-5.14v1.91h1.57v-1.91h-1.57Zm1.57,5.14v-1.91h-1.57v1.91h1.57Z"/><path class="aq" d="M251.39,21.11v14.57c0,1.26-1.23,1.72-2.28,1.42v-15.37c-.62,2.53-1.63,5.24-3.42,7.82-.34,.46-.71,.06-.55-.31,1.54-3.91,2.46-7.48,3.17-12.01h-2.06c-.58,0-.68-.25-1.14-1.57h4v-6.41l1.76,.4c.34,.06,.52,.22,.52,.4v5.6h1.14c.46,0,.8-.31,1.39-.99,.71,.71,1.17,1.08,1.17,1.51,0,.74-.62,1.05-1.72,1.05h-1.97v2.43c1.51,1.23,2.34,1.79,2.99,2.93,.86,1.48-.83,3.36-1.72,1.42-.52-1.11-.92-2.09-1.26-2.89Zm8.44,13.09c-.4-.62-1.08-1.69-1.66-2.56-1.45,2.06-3.23,4.1-5.05,5.33-.4,.28-.77-.09-.43-.49,2-2.37,4.03-6.01,5.11-8.93l1.36,.89c.71,.46,.71,.59,.43,1.05l-.77,1.23c1.2,.65,2.22,1.26,2.65,1.76,1.45,1.6-.28,3.79-1.63,1.72Zm12.93-16.01c-1.94,1.29-2,1.32-3.2,.59-2.53-1.54-5.42-4.31-6.96-6.81-1.14,1.66-2.77,3.54-4.56,5.17h5.88c.49,0,.8-.25,1.36-.86,.74,.68,1.14,.95,1.14,1.36,0,.65-.52,1.05-1.51,1.05h-5.88c-.43,0-.52-.31-1.05-1.48-1.45,1.29-2.99,2.43-4.4,3.14-.4,.18-.71-.28-.37-.55,3.54-3.02,6.34-6.81,8.19-10.84l1.45,.99c.68,.46,.71,.52,.37,1.11l-.03,.03c2.53,2.89,5.91,5.42,9.45,6.65,.37,.12,.43,.25,.12,.46Zm-12.9,9.95v-1.05h-2.65c-.03,1.36-1.54,1.54-2.28,1.36v-8.65l1.72,.34c.37,.09,.49,.18,.55,.31h1.63c.46,0,.71-.22,1.02-.59l1.82,.55c1.14,.34,.4,.99,.4,1.63v4.68c0,1.14-1.05,1.63-2.22,1.42Zm0-2.56v-3.66h-2.65v3.66h2.65Zm11.39,8.68c1.42,1.85-.28,3.79-1.72,1.72-.99-1.42-2.19-2.99-3.11-4.22-1.26,1.88-2.86,3.91-4.5,5.27-.37,.28-.71-.03-.43-.43,1.6-2.43,3.26-5.7,4.5-9.02l1.42,.89c.55,.37,.68,.49,.43,.95-.28,.49-.62,1.08-.99,1.66,1.88,1.05,3.54,2.06,4.4,3.17Zm-3.05-6.13v-1.02h-2.68c-.25,1.11-1.54,1.29-2.19,1.08v-8.41l1.66,.34c.4,.09,.52,.18,.55,.31h1.6c.46,0,.74-.25,1.05-.65l1.88,.62c1.14,.37,.4,.92,.4,1.57v4.74c0,1.23-1.08,1.63-2.28,1.42Zm0-2.53v-3.7h-2.65v3.7h2.65Z"/><path class="aq" d="M281.37,16.43c-.62,0-.62-.34-1.14-1.63h9.39c.62,0,.8-.25,1.45-.95,.74,.71,1.2,1.11,1.2,1.51,0,.83-.65,1.08-1.66,1.08h-9.24Zm9.76,2.89c0,.71-.65,1.05-1.63,1.05h-7.02c-.49,0-.62-.34-1.14-1.57h7.24c.55,0,.8-.25,1.39-.89,.74,.71,1.17,1.05,1.17,1.42Zm-.03,3.85c0,.71-.62,.99-1.6,.99h-6.99c-.49,0-.55-.34-1.08-1.57h7.14c.55,0,.83-.28,1.36-.89,.77,.68,1.17,1.05,1.17,1.48Zm-.31,5.39v5.94c0,1.42-1.08,1.82-2.43,1.66v-1.94h-4v.62c0,1.66-1.6,1.82-2.43,1.63v-10.41l1.88,.37c.34,.06,.52,.22,.55,.4h2.68c.58,0,.86-.22,1.32-.74l1.91,.62c1.26,.4,.52,1.2,.52,1.85Zm-7.08-18.97c-.18-.34,.06-.65,.43-.46,1.26,.62,2.71,1.63,3.2,2.49,1.14,2.06-.77,4-2,1.48-.43-.89-1.23-2.71-1.63-3.51Zm4.65,23.04v-4.22h-4v4.22h4Zm19.62-12.66c0,.71-.65,1.05-1.72,1.05h-5.3v14.38c0,1.51-1.29,1.85-2.53,1.63V21.01h-5.3c-.55,0-.74-.43-1.36-1.72h6.65V9.19l1.97,.43c.4,.09,.55,.22,.55,.37v9.3h4.4c.55,0,.86-.31,1.39-.86,.62,.59,1.23,1.08,1.23,1.54Z"/><path class="aq" d="M342.84,35.24c0,.77-.62,1.05-1.69,1.05h-24.45c-.49,0-.62-.31-1.17-1.6h24.61c.59,0,.89-.31,1.48-.99,.74,.71,1.23,1.05,1.23,1.54Zm-14.81-20.39v-1.45h-7.18c-.43,0-.59-.46-.99-1.42h8.16v-2.71l1.91,.34c.4,.06,.55,.28,.55,.49v1.88h3.11c.68,0,.95-.25,1.39-.74l1.91,.65c1.26,.43,.49,1.05,.49,1.66v1.29h2.46c.52,0,.77-.28,1.32-.89,.65,.65,1.08,1.02,1.08,1.45,0,.59-.55,.89-1.51,.89h-3.36v2c0,1.32-1.26,1.63-2.4,1.45v-.68h-4.5v1.42h6.04c.55,0,.83-.25,1.32-.83,.62,.62,1.05,.95,1.05,1.32,0,.65-.52,.92-1.48,.92h-6.93v1.42h9.18c.55,0,.8-.28,1.35-.86,.65,.62,1.11,.95,1.11,1.36,0,.68-.58,.99-1.57,.99h-23.28c-.49,0-.62-.31-1.14-1.48h11.89v-1.42h-8.32c-.46,0-.58-.28-1.08-1.42h9.39v-1.42h-6.99c-.49,0-.65-.4-1.05-1.42h8.04v-1.36h-11.27c-.46,0-.59-.31-1.05-1.45h12.32Zm7.24,19.28v-.95h-12.07c-.22,.8-1.32,1.14-2.34,1.02v-8.72l1.91,.37c.37,.09,.49,.22,.49,.37h10.72c.55,0,.89-.22,1.29-.68l1.97,.59c1.23,.37,.43,.95,.43,1.63v5.05c0,1.02-1.05,1.51-2.4,1.32Zm-7.24-5.2v-1.26h-4.77v1.26h4.77Zm-4.77,1.45v1.29h4.77v-1.29h-4.77Zm7.21-2.71v1.26h4.8v-1.26h-4.8Zm4.8,4v-1.29h-4.8v1.29h4.8Zm-4.77-16.81h4.5v-1.45h-4.5v1.45Zm4.5,1.45h-4.5v1.36h4.5v-1.36Z"/></g></g></g><g id="am"/><g id="an"/><g id="ao"/><g id="ap"/></svg>